# xmcd
#
# Track frame offsets:
#	150
#	20162
#	36311
#	53295
#	70658
#	86958
#	102414
#	116774
#	130905
#	145457
#	158338
#	171762
#	187430
#	204386
#	221212
#	222112
#	222822
#	223487
#	224155
#	224922
#	225572
#	226267
#	226950
#	227745
#	228630
#	229342
#	230042
#	230770
#	231462
#	232297
#	233057
#	233753
#	234971
#	235848
#	236641
#	237456
#	238381
#	239216
#	240063
#	240868
#	241801
#	242673
#	243398
#	244068
#	244751
#	245528
#	246268
#	247056
#	247773
#	248638
#
# Disc length: 3483 seconds
#
# Revision: 1
# Processed by: cddbd v1.5.2PL0 Copyright (c) Steve Scherf et al.
# Submitted via: audiograbber 1.83.01
#
DISCID=ec0d9932
DTITLE=Various Artist - CDX Volume 641 (November 14, 2016)
DYEAR=2016
DGENRE=Country
TTITLE0=Little Big Town - Better Man
TTITLE1=Dierks Bentley - Black
TTITLE2=Aaron Watson - Outta Style
TTITLE3=William Michael Morgan - Missing 
TTITLE4=LoCash - Ring On Every Finger
TTITLE5=Nick Tyrrel - Breathe The Air Tonight 
TTITLE6=Australia's Tornadoes - Cowboy For A Night
TTITLE7=Brian Pharaoh - Fighting Another War
TTITLE8=Ben McPeak - Fix You Up
TTITLE9=Amy Jack - Game On
TTITLE10=Hammond Brothers - Let It Rain On Me
TTITLE11=Rion Paige (featuring CoreNashville) - Rise 
TTITLE12=Dylan Jakobsen - Silverado
TTITLE13=Charlie McCoy and Vince Hatfield - The Hatfields and McCoys
TTITLE14=Aaron Goodvin - Radio Liner - My New Single
TTITLE15=Aaron Goodvin - Radio Liner - Today's Best Counrtry
TTITLE16=Aaron Goodvin - Radio Liner - Kickin' Country
TTITLE17=Aaron Goodvin - Radio Liner - Hometown Country
TTITLE18=Aaron Goodvin - Radio Liner - Super Country
TTITLE19=Aaron Goodvin - Radio Liner - Today's Hot Country
TTITLE20=Aaron Goodvin - Radio Liner - Best In Today's Vountry
TTITLE21=Aaron Goodvin - Radio Liner - More Of The Country
TTITLE22=Aaron Goodvin - Radio Liner - Howlin' Country
TTITLE23=Jeremy Bowman - Radio Liner - My New Single
TTITLE24=Jeremy Bowman - Radio Liner - Today's Best Country
TTITLE25=Jeremy Bowman - Radio Liner - Kickin' Country
TTITLE26=Jeremy Bowman - Radio Liner - Hometown Country
TTITLE27=Jeremy Bowman - Radio Liner - Today's Hot Country
TTITLE28=Jeremy Bowman - Radio Liner - Howlin' Country
TTITLE29=Jeremy Bowman - Radio Liner - Best In Today's Country
TTITLE30=Jeremy Bowman - Radio Liner - More Of The Country You Love
TTITLE31=Runaway Hamsters - Radio Liner - Our New Single
TTITLE32=Runaway Hamsters - Radio Liner - Today's Best
TTITLE33=Runaway Hamsters - Radio Liner - Kickin' Country
TTITLE34=Runaway Hamsters - Radio Liner - Hometown Country
TTITLE35=Runaway Hamsters - Radio Liner - Super Country
TTITLE36=Runaway Hamsters - Radio Liner - Today's Hot Country
TTITLE37=Runaway Hamsters - Radio Liner - Bests In Today's Country
TTITLE38=Runaway Hamsters - Radio Liner - More Of The Country You Love
TTITLE39=Runaway Hamsters - Radio Liner - Howlin' Country
TTITLE40=Band Steele - Radio Liner - Our New Single
TTITLE41=Band Steele - Radio Liner - Today's Best Country
TTITLE42=Band Steele - Radio Liner - Kickin' Country
TTITLE43=Band Steele - Radio Liner - Hometown Country
TTITLE44=Band Steele - Radio Liner - Super Country
TTITLE45=Band Steele - Radio Liner - Today's Hot Country
TTITLE46=Band Steele - Radio Liner - Best In Today's Country
TTITLE47=Band Steele - Radio Liner - More Of The Country You Love
TTITLE48=Band Steele - Radio Liner - Howlin' Country
TTITLE49=Charlie McCoy - Charlie McCoy On Hatfields and McCoys
EXTD=
EXTT0=
EXTT1=
EXTT2=
EXTT3=
EXTT4=
EXTT5=
EXTT6=
EXTT7=
EXTT8=
EXTT9=
EXTT10=
EXTT11=
EXTT12=
EXTT13=
EXTT14=
EXTT15=
EXTT16=
EXTT17=
EXTT18=
EXTT19=
EXTT20=
EXTT21=
EXTT22=
EXTT23=
EXTT24=
EXTT25=
EXTT26=
EXTT27=
EXTT28=
EXTT29=
EXTT30=
EXTT31=
EXTT32=
EXTT33=
EXTT34=
EXTT35=
EXTT36=
EXTT37=
EXTT38=
EXTT39=
EXTT40=
EXTT41=
EXTT42=
EXTT43=
EXTT44=
EXTT45=
EXTT46=
EXTT47=
EXTT48=
EXTT49=
PLAYORDER=
